<?xml version="1.0" standalone="no"?><!DOCTYPE svg PUBLIC "-//W3C//DTD SVG 1.1//EN" "http://www.w3.org/Graphics/SVG/1.1/DTD/svg11.dtd"><svg t="1580808415731" class="icon" viewBox="0 0 1029 1024" version="1.1" xmlns="http://www.w3.org/2000/svg" p-id="13169" xmlns:xlink="http://www.w3.org/1999/xlink" width="200.9765625" height="200"><defs><style type="text/css"></style></defs><path d="M588.315053 513.792299l415.016725-415.016725c20.711007-20.711007 20.711007-55.760405 0-76.471412l-2.389732-2.389732c-20.711007-20.711007-55.760405-20.711007-76.471412 0L509.453909 435.727732 94.437184 19.91443C73.726177-0.796577 38.676779-0.796577 17.965772 19.91443l-2.389732 2.389732C-5.931544 43.015169-5.931544 78.064566 15.57604 98.775574l415.016725 415.016725L15.57604 929.605601c-20.711007 20.711007-20.711007 55.760405 0 76.471412l2.389732 2.389731c20.711007 20.711007 55.760405 20.711007 76.471412 0l415.016725-415.016725 415.016725 415.016725c20.711007 20.711007 55.760405 20.711007 76.471412 0l2.389732-2.389731c20.711007-20.711007 20.711007-55.760405 0-76.471412L588.315053 513.792299z m0 0" fill="#9f0000" p-id="13170"></path></svg>