<?xml version="1.0" standalone="no"?><!DOCTYPE svg PUBLIC "-//W3C//DTD SVG 1.1//EN" "http://www.w3.org/Graphics/SVG/1.1/DTD/svg11.dtd"><svg t="1580734204681" class="icon" viewBox="0 0 1024 1024" version="1.1" xmlns="http://www.w3.org/2000/svg" p-id="11915" xmlns:xlink="http://www.w3.org/1999/xlink" width="200" height="200"><defs><style type="text/css"></style></defs><path d="M284.715746 896.257179c-58.355402 0-105.831005-45.083793-105.831004-100.500901 0-55.414612 47.475603-100.497158 105.831004-100.497158 58.35665 0 105.8335 45.082546 105.8335 100.497158 0 55.417108-47.47685 100.500901-105.8335 100.500901z m0-171.212113c-41.930897 0-76.045058 31.721104-76.045058 70.711212 0 38.992603 34.112913 70.714954 76.045058 70.714954s76.046306-31.722351 76.046306-70.714954c0.001248-38.990107-34.112913-70.711211-76.046306-70.711212z" fill="#696969" p-id="11916"></path><path d="M375.656897 810.651123c-8.225977 0-14.893597-6.668868-14.893597-14.894845V285.01831c0-8.224729 6.66762-14.893597 14.893597-14.893598 8.224729 0 14.893597 6.66762 14.893597 14.893598v510.737968c-0.001248 8.225977-6.668868 14.894845-14.893597 14.894845zM701.84876 756.858499c-58.355402 0-105.832252-45.086289-105.832253-100.505892 0-55.414612 47.47685-100.497158 105.832253-100.497158 58.355402 0 105.832252 45.082546 105.832252 100.497158 0 55.420851-47.478098 100.505892-105.832252 100.505892z m0-171.215856c-41.932145 0-76.046306 31.721104-76.046306 70.711212 0 38.995098 34.114161 70.718697 76.046306 70.718697 41.930897 0 76.045058-31.723599 76.045058-70.718697 0-38.990107-34.114161-70.711211-76.045058-70.711212z" fill="#696969" p-id="11917"></path><path d="M792.786167 671.246204c-8.224729 0-14.893597-6.66762-14.893597-14.893597V145.617134c0-8.224729 6.668868-14.893597 14.893597-14.893597s14.894845 6.66762 14.894845 14.893597v510.736721c0 8.224729-6.670116 14.89235-14.894845 14.892349z" fill="#696969" p-id="11918"></path><path d="M375.654401 299.916897c-6.230931 0-12.038898-3.941432-14.122528-10.177353-2.606411-7.800517 1.603273-16.2386 9.405037-18.845011l417.130519-139.402423c7.806755-2.613897 16.2386 1.604521 18.84501 9.405038 2.608906 7.800517-1.603273 16.2386-9.40379 18.84501L380.376883 299.144581a14.85991 14.85991 0 0 1-4.722482 0.772316zM375.654401 381.032541c-6.230931 0-12.038898-3.941432-14.122528-10.177354-2.606411-7.800517 1.603273-16.2386 9.405037-18.845011l417.130519-139.402423c7.806755-2.611401 16.2386 1.604521 18.84501 9.405038 2.608906 7.800517-1.603273 16.2386-9.40379 18.845011L380.376883 380.260225a14.85991 14.85991 0 0 1-4.722482 0.772316z" fill="#696969" p-id="11919"></path></svg>