<?xml version="1.0" standalone="no"?><!DOCTYPE svg PUBLIC "-//W3C//DTD SVG 1.1//EN" "http://www.w3.org/Graphics/SVG/1.1/DTD/svg11.dtd"><svg t="1580741626018" class="icon" viewBox="0 0 1024 1024" version="1.1" xmlns="http://www.w3.org/2000/svg" p-id="18627" xmlns:xlink="http://www.w3.org/1999/xlink" width="200" height="200"><defs><style type="text/css"></style></defs><path d="M512 85.333333c235.648 0 426.666667 191.018667 426.666667 426.666667s-191.018667 426.666667-426.666667 426.666667S85.333333 747.648 85.333333 512 276.352 85.333333 512 85.333333zM353.834667 371.498667A42.666667 42.666667 0 0 0 341.333333 401.664v220.672a42.666667 42.666667 0 0 0 72.832 30.165333l110.336-110.336a42.666667 42.666667 0 0 0 0-60.330666L414.165333 371.498667a42.666667 42.666667 0 0 0-60.330666 0zM649.813333 384h-19.712c-11.392 0-15.530667 1.194667-19.712 3.413333a23.253333 23.253333 0 0 0-9.685333 9.685334c-2.218667 4.181333-3.413333 8.32-3.413333 19.712v190.378666c0 11.392 1.194667 15.530667 3.413333 19.712a23.253333 23.253333 0 0 0 9.685333 9.685334c4.181333 2.218667 8.32 3.413333 19.712 3.413333h19.712c11.392 0 15.530667-1.194667 19.712-3.413333a23.253333 23.253333 0 0 0 9.685334-9.685334c2.218667-4.181333 3.413333-8.32 3.413333-19.712V416.810667c0-11.392-1.194667-15.530667-3.413333-19.712a23.253333 23.253333 0 0 0-9.685334-9.685334c-4.181333-2.218667-8.32-3.413333-19.712-3.413333z" fill="#af0000" p-id="18628"></path></svg>