<?xml version="1.0" standalone="no"?><!DOCTYPE svg PUBLIC "-//W3C//DTD SVG 1.1//EN" "http://www.w3.org/Graphics/SVG/1.1/DTD/svg11.dtd"><svg t="1580792226028" class="icon" viewBox="0 0 1024 1024" version="1.1" xmlns="http://www.w3.org/2000/svg" p-id="8264" xmlns:xlink="http://www.w3.org/1999/xlink" width="200" height="200"><defs><style type="text/css"></style></defs><path d="M32 932v60h60a300 300 0 0 1-60-60zM32 32v540a300 300 0 0 1 60-60V92h840v840H512a300 300 0 0 1-60 60h540V32z" p-id="8265" fill="#6f6f6f"></path><path d="M272 512a240 240 0 1 0 240 240 240 240 0 0 0-240-240z m-90 360v-240l180 120zM272 212h600v60H272zM272 392h600v60H272zM572 572h300v60H572zM572 752h300v60H572z" p-id="8266" fill="#6f6f6f"></path></svg>