<?xml version="1.0" standalone="no"?><!DOCTYPE svg PUBLIC "-//W3C//DTD SVG 1.1//EN" "http://www.w3.org/Graphics/SVG/1.1/DTD/svg11.dtd"><svg t="1580744417651" class="icon" viewBox="0 0 1024 1024" version="1.1" xmlns="http://www.w3.org/2000/svg" p-id="26349" xmlns:xlink="http://www.w3.org/1999/xlink" width="200" height="200"><defs><style type="text/css"></style></defs><path d="M512 56.32c-233.472 0-422.707 189.235-422.707 422.707C89.293 712.5 278.528 901.734 512 901.734S934.707 712.5 934.707 479.027C934.707 245.555 745.472 56.32 512 56.32z m0 807.526c-212.582 0-384.82-172.236-384.82-384.819S299.419 94.208 512 94.208s384.82 172.237 384.82 384.82S724.581 863.845 512 863.845z" fill="#000000" p-id="26350" data-spm-anchor-id="a313x.7781069.0.i69" class="selected"></path><path d="M272.18 479.027a117.1 117.1 0 1 0 479.64 0 117.1 117.1 0 1 0-479.64 0z" fill="#af0000" p-id="26351" data-spm-anchor-id="a313x.7781069.0.i67" class=""></path></svg>