<?xml version="1.0" standalone="no"?><!DOCTYPE svg PUBLIC "-//W3C//DTD SVG 1.1//EN" "http://www.w3.org/Graphics/SVG/1.1/DTD/svg11.dtd"><svg t="1580782870577" class="icon" viewBox="0 0 1024 1024" version="1.1" xmlns="http://www.w3.org/2000/svg" p-id="5008" xmlns:xlink="http://www.w3.org/1999/xlink" width="200" height="200"><defs><style type="text/css"></style></defs><path d="M515.03479166 162.561875v0l-203.878125 152.91h-127.4859375c-35.44124999 0-63.6459375 28.2571875-63.6459375 63.1190625v256.014375c0 34.3903125 28.4971875 63.1190625 63.6459375 63.1190625h127.4859375l203.878125 152.91c28.3471875 21.2578125 50.9559375 9.6253125 50.9559375-25.6490625v-636.78c0-34.83-22.816875-46.7559375-50.9559375-25.64906249z" p-id="5009" fill="#8f8f8f"></path><path d="M865.82302665 511.04304377l53.39818955-53.39818955c17.69511223-17.69511223 17.69511223-46.38256072 0-64.08308027v0c-17.69511223-17.69511223-46.38256072-17.69511223-64.0830803 0l-53.39818955 53.39818954-53.39818954-53.39818954c-17.69511223-17.69511223-46.38256072-17.69511223-64.08308029 0s-17.69511223 46.38256072 0 64.08308027l53.39818954 53.39818955-53.39818954 53.39818955c-17.69511223 17.69511223-17.69511223 46.38256072 0 64.08308029v0c17.69511223 17.69511223 46.38256072 17.69511223 64.08308029 0l53.39818954-53.39818954 53.39818955 53.39818954c17.69511223 17.69511223 46.38256072 17.69511223 64.0830803 0v0c17.69511223-17.69511223 17.69511223-46.38256072 0-64.08308029l-53.39818955-53.39818955z" p-id="5010" fill="#8f8f8f"></path></svg>